<svg fill="none" xmlns="http://www.w3.org/2000/svg" viewBox="0 0 155 23">
  <path d="M18.858 21.79h-2.47V9.962h2.47V21.79zm9.321-8.257c.583.47.855 1.262.855 2.349v5.92h-2.375v-5.316c0-.47-.067-.819-.176-1.047-.244-.443-.651-.685-1.302-.685-.787 0-1.303.336-1.615.98a3.53 3.53 0 00-.244 1.33v4.752h-2.306v-8.767h2.238v1.29c.312-.444.583-.78.828-.98.474-.337 1.058-.551 1.818-.551.936.013 1.695.255 2.279.725zm1.979 1.221V13.13h1.235v-2.444h2.306v2.444h1.438v1.638H33.7v4.618c0 .376.04.578.136.685.108.107.38.134.854.134h.489v1.705l-1.167.04c-1.099.04-1.858-.134-2.238-.577-.272-.268-.38-.685-.38-1.222v-5.37l-1.235-.027zm12.102-1.53c.625.269 1.14.712 1.547 1.289.38.51.583 1.128.719 1.799.068.403.109.98.068 1.732h-6.458c.04.886.34 1.49.923 1.839.339.201.787.336 1.275.336.515 0 .963-.135 1.275-.403a1.65 1.65 0 00.475-.618h2.374c-.068.51-.339 1.047-.855 1.598-.786.846-1.885 1.289-3.337 1.289a4.897 4.897 0 01-3.12-1.088c-.896-.711-1.343-1.906-1.343-3.504 0-1.53.407-2.685 1.234-3.504.828-.819 1.859-1.221 3.161-1.221.746.053 1.438.188 2.062.456zm-3.473 1.974c-.339.335-.556.778-.624 1.355h3.989c-.04-.617-.244-1.047-.624-1.396-.38-.309-.828-.47-1.37-.47-.584 0-1.032.175-1.37.51zm12.061-2.35h.204v2.35c-.136 0-.271-.04-.38-.04h-.271c-.923 0-1.547.308-1.886.885-.176.336-.271.846-.271 1.558v4.175H45.91v-8.74h2.198v1.53c.34-.577.651-.98.923-1.194.447-.376.99-.55 1.682-.55.068 0 .095 0 .135.026zm5.046 3.639c.448-.067.76-.134.922-.201.34-.135.516-.336.516-.645 0-.376-.136-.617-.38-.752-.244-.134-.624-.201-1.14-.201-.556 0-.963.134-1.166.403-.177.201-.272.47-.34.819h-2.238c.04-.78.271-1.397.651-1.907.624-.778 1.682-1.154 3.161-1.154.963 0 1.859.201 2.605.577.76.376 1.14 1.087 1.14 2.148v5.034c0 .31.068.51.135.618.068.108.204.201.34.269v.335h-2.51a2.373 2.373 0 01-.136-.51c-.04-.175-.04-.336-.068-.55a5.03 5.03 0 01-1.099.886c-.515.268-1.058.443-1.723.443-.786 0-1.478-.242-1.994-.685-.516-.443-.787-1.087-.787-1.933 0-1.088.407-1.866 1.276-2.35.474-.268 1.14-.443 2.062-.577l.773-.067zm1.41 1.06c-.135.108-.311.175-.447.242s-.34.108-.624.175l-.515.107c-.475.107-.855.201-1.059.309-.38.201-.556.55-.556.98 0 .403.109.685.34.846.203.174.474.268.827.268.515 0 .963-.134 1.41-.443.408-.309.652-.819.652-1.597v-.887h-.027zm9.581-1.37a1.738 1.738 0 00-.34-.886c-.27-.336-.65-.55-1.207-.55-.787 0-1.302.375-1.614 1.154a5.165 5.165 0 00-.244 1.638c0 .644.068 1.154.244 1.557.271.712.787 1.088 1.574 1.088.556 0 .922-.135 1.166-.443.245-.31.38-.685.407-1.128h2.374a3.91 3.91 0 01-.76 1.973c-.718.98-1.79 1.49-3.228 1.49-1.438 0-2.47-.402-3.161-1.261-.692-.86-.99-1.934-.99-3.263 0-1.49.38-2.685 1.098-3.504.76-.845 1.75-1.262 3.093-1.262 1.1 0 2.022.242 2.714.752.692.51 1.14 1.356 1.275 2.618l-2.401.027zm3.119-1.423V13.13h1.234v-2.444h2.307v2.444h1.438v1.638h-1.438v4.618c0 .376.04.578.135.685.109.107.38.134.855.134h.489v1.705l-1.14.04c-1.099.04-1.859-.134-2.239-.577-.27-.268-.38-.685-.38-1.222v-5.37l-1.261-.027zm8.872-2.752H76.53V9.895h2.334v2.107h.013zm-2.374 1.06h2.333v8.768h-2.333v-8.767zm9.89.001h2.47l-3.189 8.766h-2.442l-3.16-8.767h2.604l1.859 6.458 1.858-6.457zm9.238.161c.624.269 1.14.712 1.546 1.289.38.51.584 1.128.72 1.799.067.403.108.98.067 1.732h-6.458c.041.886.34 1.49.923 1.839.339.201.787.336 1.275.336.516 0 .963-.135 1.275-.403a1.65 1.65 0 00.475-.618h2.374c-.067.51-.339 1.047-.854 1.598-.787.846-1.886 1.289-3.338 1.289a4.897 4.897 0 01-3.12-1.088c-.895-.711-1.343-1.906-1.343-3.504 0-1.53.407-2.685 1.234-3.504.828-.819 1.86-1.221 3.161-1.221.76.053 1.452.188 2.063.456zm-3.474 1.974c-.339.335-.556.778-.624 1.355h3.989c-.04-.617-.244-1.047-.624-1.396-.38-.309-.828-.47-1.37-.47-.57 0-1.018.175-1.37.51zm7.328-5.196h5.155c1.411 0 2.401.403 2.985 1.222.339.47.515 1.047.515 1.705 0 .752-.203 1.356-.651 1.839-.203.242-.556.47-.963.685.624.241 1.058.47 1.37.778.556.51.787 1.222.787 2.148 0 .752-.244 1.464-.719 2.068-.719.913-1.886 1.396-3.473 1.396h-5.088V10.015h.082v-.013zm4.572 4.994c.692 0 1.234-.107 1.614-.268.624-.31.895-.82.895-1.598 0-.779-.312-1.289-.963-1.557-.38-.135-.895-.242-1.614-.242h-2.917v3.665h2.985zm.542 5.437c.991 0 1.723-.268 2.13-.845.272-.376.407-.779.407-1.29 0-.845-.38-1.422-1.166-1.771-.407-.175-.964-.242-1.656-.242h-3.228v4.148h3.513zm5.875-7.236h1.37v1.49c.108-.309.38-.644.827-1.047.448-.403.964-.617 1.547-.617h.136c.068 0 .176 0 .339.04v1.53c-.109 0-.177-.04-.244-.04h-.245c-.719 0-1.302.242-1.682.711-.407.47-.583 1.02-.583 1.638v4.968h-1.465v-8.673zm11.708.846c.76.752 1.167 1.839 1.167 3.262 0 1.396-.34 2.551-1.032 3.437-.691.913-1.723 1.356-3.161 1.356-1.207 0-2.13-.403-2.821-1.195-.692-.819-1.059-1.866-1.059-3.235 0-1.464.38-2.578 1.099-3.464.719-.846 1.723-1.289 2.958-1.289 1.139.04 2.062.416 2.849 1.128zm-.923 5.746c.339-.712.556-1.53.556-2.417 0-.819-.135-1.463-.379-1.973-.407-.779-1.099-1.195-2.09-1.195-.895 0-1.506.335-1.926 1.02-.407.685-.624 1.49-.624 2.444 0 .913.203 1.664.624 2.282.407.617 1.031.913 1.926.913.923.013 1.574-.363 1.913-1.074zm3.703-9.787h1.411v6.86l3.744-3.665h1.859l-3.338 3.195 3.541 5.41h-1.858l-2.754-4.39-1.208 1.155v3.236h-1.397V10.002zm13.296 3.423c.583.269 1.031.645 1.302 1.128a4.5 4.5 0 01.583 1.53c.109.404.136 1.021.136 1.907h-6.322c.041.886.244 1.557.624 2.108.38.55.991.779 1.791.779.76 0 1.37-.242 1.818-.752.244-.31.448-.618.556-1.02h1.438c-.041.308-.176.684-.38 1.047-.203.375-.447.711-.719.953-.447.443-.99.711-1.655.886-.339.107-.76.134-1.207.134-1.058 0-1.995-.376-2.754-1.154-.76-.78-1.14-1.867-1.14-3.263s.38-2.51 1.14-3.37c.759-.845 1.75-1.288 2.957-1.288.665-.068 1.248.107 1.832.375zm.556 3.41c-.068-.617-.204-1.127-.407-1.49-.407-.711-1.058-1.047-1.994-1.047-.652 0-1.235.242-1.683.712-.447.47-.691 1.087-.719 1.839l4.803-.014zm3.228-3.638h1.37v1.49c.109-.309.38-.644.828-1.047.447-.403.963-.617 1.546-.617h.136c.068 0 .176 0 .339.04v1.53c-.108 0-.176-.04-.244-.04h-.244c-.719 0-1.303.242-1.683.711-.407.47-.583 1.02-.583 1.638v4.968h-1.479v-8.673h.014zm6.39 5.907c.041.47.176.846.38 1.128.38.47 1.031.712 1.954.712a3.15 3.15 0 001.478-.336c.407-.242.624-.577.624-1.087 0-.376-.176-.645-.515-.846-.204-.108-.651-.242-1.275-.403l-1.167-.309c-.76-.174-1.303-.376-1.682-.617-.652-.403-.964-.913-.964-1.638 0-.82.312-1.464.896-1.974.583-.51 1.411-.752 2.442-.752 1.343 0 2.306.376 2.889 1.155.38.47.557 1.02.557 1.557h-1.371a1.727 1.727 0 00-.339-.886c-.339-.376-.922-.577-1.791-.577-.556 0-.99.107-1.275.309-.271.201-.447.47-.447.819 0 .376.203.684.583.886.203.134.556.241.963.335l.99.242c1.059.242 1.791.51 2.171.752.583.376.855.953.855 1.732 0 .778-.312 1.423-.896 1.973-.583.55-1.505.846-2.713.846-1.302 0-2.238-.309-2.781-.886-.556-.577-.828-1.289-.895-2.175h1.343l-.014.04z" fill="#111B21"/>
  <path d="M0 21.79V11.184L9.768 21.79H0z" fill="url(#UJhwkbmz254Ya)"/>
  <path d="M8.384 16.66c1.61 0 2.916-1.292 2.916-2.886s-1.305-2.886-2.916-2.886-2.917 1.292-2.917 2.886 1.306 2.887 2.917 2.887zM0 11.183V21.79L9.768 0 0 11.183z" fill="#D81222"/>
  <defs>
    <linearGradient id="UJhwkbmz254Ya" x1="9.749" y1="16.49" x2="-.006" y2="16.49" gradientUnits="userSpaceOnUse">
      <stop stop-color="#D81222"/>
      <stop offset="1" stop-color="#960B1A"/>
    </linearGradient>
  </defs>
</svg>
