<svg fill="none" xmlns="http://www.w3.org/2000/svg" viewBox="0 0 179 25">
  <path d="M34.815 12.008c.023-.075.039-.152.049-.23-.009-1.12-.363-5.459-4.68-6.391a7.279 7.279 0 00-2.908.065A9.419 9.419 0 0023.47 7.19a45.725 45.725 0 00-4.04 3.394l-.652-1.277a.566.566 0 00-.493-.3h-.602a.553.553 0 00-.479.278.579.579 0 00-.013.56l1.025 1.954c-1.103 1.145-2.056 2.254-3.319 3.576-1.32 1.227-2.63 2.66-4.043 3.26-3.879 1.502-6.12-.597-6.19-4.305-.03-1.09-.908-1.245-1.255-.805-2.31 2.99-1.775 8.446 2.064 9.988 1.303.517 3.336 1.089 5.55.176 1.79-.741 3.698-2.012 5.78-5.242.714-1.112 1.69-2.606 2.21-3.26.195-.253.398-.52.572-.783l.674 1.286a.565.565 0 00.498.302h.52a.553.553 0 00.478-.276.579.579 0 00.017-.558l-1.164-2.277c.347-.472.715-.943 1.16-1.487 1.189-1.45 2.573-3.102 4.186-4.002 4.793-2.75 8.126.309 8.183 4.488v.04c.036.313.52.359.678.089zm1.373 4.209a.388.388 0 00.553 0 .403.403 0 00.116-.281v-6.1a.403.403 0 00-.115-.282.389.389 0 00-.554 0 .403.403 0 00-.115.282v6.1a.4.4 0 00.115.28zm-1.995.45a.414.414 0 00.453.093.418.418 0 00.227-.229.434.434 0 00.032-.163v-3.077a.434.434 0 00-.112-.318.418.418 0 00-.471-.1.417.417 0 00-.227.247.432.432 0 00-.024.171v3.077c0 .112.044.22.122.299z" fill="#111B21"/>
  <path d="M32.048 20.684a.44.44 0 00.483.1.443.443 0 00.24-.245.46.46 0 00.034-.174v-7.591a.458.458 0 00-.267-.443.438.438 0 00-.5.105.453.453 0 00-.12.338v7.592c0 .12.047.234.13.319zm-1.968.999a.465.465 0 00.765-.155.485.485 0 00.036-.183v-1.832a.487.487 0 00-.127-.357.47.47 0 00-.342-.15.463.463 0 00-.343.15.482.482 0 00-.127.357v1.832c0 .127.05.248.138.338zm-1.807.965a.487.487 0 00.54-.11.508.508 0 00.144-.356v-5.65a.51.51 0 00-.155-.337.492.492 0 00-.68 0 .509.509 0 00-.155.338v5.65a.512.512 0 00.145.356.51.51 0 00.161.109zm-2.352-1.34a.516.516 0 00.85-.172.54.54 0 00.039-.204v-5.217a.535.535 0 00-.153-.374.516.516 0 00-.736 0 .535.535 0 00-.152.374v5.219c0 .14.055.275.152.374zm-2.262.808a.543.543 0 00.775 0 .563.563 0 00.16-.395v-1.634a.563.563 0 00-.16-.395.543.543 0 00-.775 0 .563.563 0 00-.16.395v1.634c0 .148.057.29.16.395zm0-3.325a.543.543 0 00.894-.18.568.568 0 00.041-.214v-1.886a.563.563 0 00-.16-.394.543.543 0 00-.775 0 .563.563 0 00-.16.394v1.886c0 .148.057.29.16.395zm-2.262 1.423a.569.569 0 00.812 0 .59.59 0 00.169-.413v-2.525a.59.59 0 00-.169-.413.569.569 0 00-.812 0 .59.59 0 00-.168.413V19.8c0 .155.06.303.168.413zm8.835-1.764a.46.46 0 00.514-.105.477.477 0 00.135-.343V15.45a.487.487 0 00-.127-.357.469.469 0 00-.529-.11.47.47 0 00-.255.275.487.487 0 00-.028.192v2.56a.483.483 0 00.29.44zm4.094 1.465c.05.021.105.032.16.032v-.009a.411.411 0 00.291-.122.43.43 0 00.125-.294V17.58a.432.432 0 00-.251-.418.412.412 0 00-.56.247.432.432 0 00-.023.17v1.943a.432.432 0 00.122.3c.039.04.085.071.136.093zM.23 16.32c.148.15.347.234.554.234a.776.776 0 00.551-.235.803.803 0 00.228-.561V7.761a.81.81 0 00-.21-.597.783.783 0 00-.57-.253.77.77 0 00-.572.253.799.799 0 00-.21.596v7.997c0 .21.083.413.23.563zm3.11-4.052a.75.75 0 00.535.225v.005a.75.75 0 00.535-.225.777.777 0 00.222-.544V7.952c0-.204-.08-.4-.222-.544a.75.75 0 00-1.07 0 .777.777 0 00-.221.544v3.771c0 .204.08.4.221.545zm5.976-4.61c.127.13.3.202.48.202v.006a.668.668 0 00.481-.204.691.691 0 00.197-.492V1.52a.7.7 0 00-.199-.488.678.678 0 00-.48-.202.668.668 0 00-.479.202.691.691 0 00-.198.488v5.65c0 .183.071.359.198.488zm2.65 2.818a.646.646 0 00.458.191v.006a.65.65 0 00.46-.193.67.67 0 00.192-.468V3.76a.67.67 0 00-.191-.47.646.646 0 00-.922 0 .67.67 0 00-.191.47v6.253a.67.67 0 00.194.464zM14.9 4.63a.615.615 0 00.24.049v.005a.621.621 0 00.443-.186.643.643 0 00.184-.451V1.89a.643.643 0 00-.184-.45.621.621 0 00-.886 0 .643.643 0 00-.183.45v2.15a.646.646 0 00.183.452.625.625 0 00.203.138zm0 4.136a.615.615 0 00.24.048v.005a.62.62 0 00.442-.186.643.643 0 00.185-.45V5.87a.643.643 0 00-.184-.45.621.621 0 00-.886 0 .643.643 0 00-.183.45v2.31a.645.645 0 00.184.45.625.625 0 00.203.137zm2.481-.6a.59.59 0 00.23.046v.005a.59.59 0 00.424-.178.61.61 0 00.176-.431V5.26a.616.616 0 00-.176-.432.595.595 0 00-.849 0 .617.617 0 00-.176.432v2.343a.618.618 0 00.176.43.599.599 0 00.195.133zM6.394 7.688a.698.698 0 00.989 0 .723.723 0 00.21-.5V3.325a.723.723 0 00-.207-.507.698.698 0 00-.996 0 .723.723 0 00-.206.507v3.863a.723.723 0 00.21.5zm-.004 4.233a.698.698 0 001.15-.234.727.727 0 00.053-.274V9.177a.723.723 0 00-.207-.506.698.698 0 00-.996 0 .723.723 0 00-.206.506v2.237c0 .19.074.373.206.507zM3.585 6.137a.745.745 0 00.826-.168.77.77 0 00.22-.547V2.668c0-.204-.08-.4-.22-.544a.75.75 0 00-1.07 0 .777.777 0 00-.222.544v2.754a.782.782 0 00.22.547c.07.072.154.129.246.168zM36.22 16.789h-.678l-.005.132h.269v.648h.147v-.651h.267v-.13zm.79 0h-.137l-.228.57-.227-.572h-.139l-.055.78h.14l.033-.492.2.494h.095l.2-.493.034.493h.14l-.056-.78zM45.065 5.92h6.576v17.434h5.301V5.919h6.577V1.293H45.065v4.626zm26.424 8.636h6.605V9.93H71.49V5.92h8.285V1.292H66.186v22.06h13.999V18.72h-8.696v-4.164zm25.522-2.961c0 1.387.255 3.763.255 3.763h-.061a39.484 39.484 0 00-1.82-3.763l-6-10.302h-5.36v22.06h5.304V13.076c0-1.387-.242-3.764-.242-3.764h.058a39.504 39.504 0 001.82 3.764l6.008 10.279h5.334V1.3h-5.304l.008 10.294zm17.099-5.676v10.517c0 1.606-.788 2.338-1.909 2.338a1.74 1.74 0 01-.892-.188 1.775 1.775 0 01-.682-.614c-.273-.4-.427-1.019-.427-1.853V15.6l-5.303.608v.345c0 4.78 3.606 7.154 7.243 7.154 3.637 0 7.274-2.312 7.274-7.154V1.293h-5.36l.056 4.626zm10.102 17.435h5.303V1.3h-5.303v22.053zm23.395-11.752c0 1.387.243 3.764.243 3.764h-.061a39.728 39.728 0 00-1.82-3.764l-6-10.301h-5.36v22.053h5.304V13.075c0-1.387-.243-3.764-.243-3.764h.059a39.47 39.47 0 001.807 3.764l6.041 10.279h5.334V1.3h-5.304v10.301zm25.938 11.752h-1.383l-2.759-7.466h-9.009l-2.729 7.466h-1.393l7.94-21.59h1.393l7.94 21.59zm-4.607-8.697l-3.213-8.761c-.332-.925-.786-2.598-.786-2.598h-.061s-.455 1.665-.789 2.598l-3.241 8.761h8.09zm8.422-12.894v21.59h1.304V1.756l-1.304.008z" fill="#111B21"/>
</svg>
